<?xml version="1.0" encoding="utf-8"?>
<!-- Generator: Adobe Illustrator 22.0.0, SVG Export Plug-In . SVG Version: 6.00 Build 0)  -->
<svg version="1.1" id="Layer_1" xmlns="http://www.w3.org/2000/svg" xmlns:xlink="http://www.w3.org/1999/xlink" x="0px" y="0px"
	 viewBox="0 0 300 300" style="enable-background:new 0 0 300 300;" xml:space="preserve">
<style type="text/css">
	.st0{clip-path:url(#SVGID_2_);fill:none;stroke:#79BA2B;stroke-width:9.575;stroke-miterlimit:10;}
	.st1{clip-path:url(#SVGID_2_);fill:#79BA2B;}
	.st2{clip-path:url(#SVGID_4_);fill:#F9FBFC;}
	.st3{clip-path:url(#SVGID_4_);fill:#7EB21B;}
	.st4{clip-path:url(#SVGID_4_);fill:#79BA2B;}
	.st5{fill:#33854E;}
	.st6{fill:#FFFFFF;}
	.st7{fill:none;stroke:#FFFFFF;stroke-width:4.559;stroke-linecap:round;stroke-linejoin:round;stroke-miterlimit:10;}
	.st8{font-family:'Poppins-ExtraBold';}
	.st9{font-size:37.2409px;}
	.st10{fill:#79BA2B;}
	.st11{fill:none;stroke:#7EB21B;stroke-width:4.559;stroke-linecap:round;stroke-linejoin:round;stroke-miterlimit:10;}
	.st12{fill:#725131;}
	.st13{fill:#7EB21B;}
	.st14{fill:none;}
</style>
<text transform="matrix(1 0 0 1 15.7762 275.6446)" class="st5 st8 st9">RENOVATECH</text>
<g>
	<path class="st10" d="M154.2,56.9c-0.7-4.2-4.3-7.4-8.7-7.4c-4.3,0-7.9,3.1-8.7,7.2c-32.3,3.8-57.5,31.5-57.5,64.8
		c0,4.2,0.4,8.3,1.2,12.3c0.2,1.2,1.5,2,2.7,1.6l0,0c1.1-0.3,1.8-1.4,1.5-2.5c-0.7-3.7-1.1-7.5-1.1-11.4c0-31,23.3-56.7,53.4-60.4
		c1.1,3.6,4.5,6.2,8.5,6.2c3.9,0,7.2-2.5,8.4-6c0.3-0.9,0.5-1.9,0.5-2.9C154.4,57.9,154.3,57.4,154.2,56.9 M149.3,60.7
		c-0.8,1.3-2.2,2.1-3.8,2.1c-1.6,0-3.1-0.9-3.9-2.2c-0.4-0.7-0.6-1.4-0.6-2.3c0-0.8,0.2-1.5,0.5-2.1c0.8-1.4,2.2-2.4,4-2.4
		c1.8,0,3.3,1,4,2.5c0.3,0.6,0.5,1.3,0.5,2C150,59.2,149.7,60,149.3,60.7"/>
	<path class="st10" d="M204.6,147c3.4-7.9,5.2-16.5,5.2-25.6c0-26-15.3-48.5-37.4-59c-1-0.5-2.3-0.1-2.8,0.9l0,0
		c-0.6,1.1-0.2,2.5,1,3.1c20.6,9.8,34.8,30.8,34.8,55c0,8.4-1.7,16.3-4.8,23.6c-0.6-0.1-1.3-0.2-2-0.2c-4.9,0-8.9,4-8.9,8.9
		c0,2.2,0.8,4.2,2.2,5.8c1,1.1,2.2,2,3.6,2.5c0.9,0.4,2,0.6,3.1,0.6c4.9,0,8.9-4,8.9-8.9C207.6,151,206.4,148.6,204.6,147
		 M198.7,158.2c-0.1,0-0.2,0-0.2,0c-1.6-0.1-3-1-3.7-2.3c-0.3-0.6-0.5-1.4-0.5-2.1c0-2.5,2-4.5,4.5-4.5h0c1.6,0,3,0.9,3.8,2.2
		c0.4,0.7,0.7,1.5,0.7,2.3C203.2,156.2,201.2,158.2,198.7,158.2"/>
	<path class="st10" d="M185.3,169.5c-0.8-0.9-2.1-1-3-0.3c-10.4,8.2-23.4,13.1-37.7,13.1c-19.1,0-36.2-8.9-47.4-22.7
		c1.4-1.6,2.3-3.7,2.3-5.9c0-4.9-4-8.9-8.9-8.9c-0.7,0-1.5,0.1-2.2,0.3c-1.5,0.3-2.8,1.1-3.9,2.1c-1.7,1.6-2.8,3.9-2.8,6.5
		c0,4.9,4,8.9,8.9,8.9c1,0,2-0.2,2.9-0.5c12,15,30.4,24.7,51.1,24.7c15.3,0,29.3-5.3,40.4-14.1C185.9,171.9,186.1,170.4,185.3,169.5
		 M94.4,156c-0.8,1.3-2.2,2.2-3.8,2.2h0c-2.5,0-4.5-2-4.5-4.5c0-0.8,0.2-1.5,0.5-2.1v0c0.7-1.3,2.1-2.3,3.7-2.3c0.1,0,0.2,0,0.2,0
		c2.5,0,4.5,2,4.5,4.5C95.1,154.5,94.9,155.3,94.4,156"/>
	<path class="st5" d="M227.3,82.4c4.4-4,5.3-10.7,1.9-15.9c-3.3-5-9.7-6.9-15-4.7C184.9,27.1,133.4,19,94.6,44.6
		c-4.9,3.2-9.4,6.9-13.5,10.9c-1.3,1.2-1.2,3.3,0.2,4.4l0,0c1.2,1,3,1,4.1-0.2c3.8-3.7,7.9-7.1,12.5-10.1
		c36.1-23.8,84-16.4,111.4,15.8c-3.3,4.1-3.8,10-0.7,14.6c3,4.5,8.4,6.4,13.4,5.2c1.3-0.3,2.6-0.9,3.7-1.6
		C226.3,83.3,226.9,82.8,227.3,82.4 M219.1,79.6c-2.1,0.1-4.2-0.9-5.4-2.8c-1.3-1.9-1.3-4.3-0.4-6.2c0.5-1,1.2-1.8,2.2-2.5
		c0.9-0.6,1.9-0.9,2.9-1c2.2-0.2,4.5,0.8,5.8,2.8c1.4,2.1,1.3,4.6,0.2,6.6c-0.5,0.8-1.1,1.5-2,2.1C221.4,79.2,220.2,79.5,219.1,79.6
		"/>
	<path class="st5" d="M161,210.3c11.7-2.1,23.3-6.6,33.8-13.6c30.3-20,44.8-55.1,40-88.9c-0.2-1.6-1.6-2.7-3.2-2.6l0,0
		c-1.8,0.1-3,1.7-2.8,3.5c4.4,31.5-9.1,64.2-37.4,82.8c-9.7,6.4-20.3,10.6-31.1,12.6c-0.3-0.9-0.7-1.7-1.3-2.5
		c-3.7-5.7-11.4-7.3-17.1-3.5c-2.6,1.7-4.3,4.2-5.1,7c-0.6,2-0.6,4.1-0.1,6.1c0.3,1.4,0.9,2.7,1.7,4c3.7,5.7,11.4,7.3,17.1,3.5
		C158.7,216.8,160.5,213.6,161,210.3 M143.5,212c-0.1-0.1-0.1-0.2-0.2-0.3c-1.1-1.9-1.1-4.2-0.1-6.1c0.5-0.9,1.2-1.7,2.1-2.3
		c2.9-1.9,6.8-1.1,8.7,1.8c0,0,0,0,0,0c1.2,1.9,1.3,4.2,0.4,6.1c-0.5,1-1.2,1.9-2.2,2.6C149.3,215.7,145.4,214.9,143.5,212"/>
	<path class="st5" d="M120,205c0.5-1.6-0.4-3.2-2-3.7c-17.5-5.8-33.3-17.2-44.2-33.8c-14.7-22.3-17.5-49-9.9-72.7
		c2.9,0.4,6-0.1,8.7-1.9c5.7-3.8,7.3-11.5,3.5-17.2c-0.6-0.9-1.2-1.6-2-2.3c-1.5-1.4-3.4-2.4-5.4-2.9c-3.2-0.8-6.8-0.3-9.8,1.7
		c-5.7,3.7-7.3,11.4-3.5,17.1c0.8,1.2,1.7,2.2,2.8,3c-8.3,25.5-5.4,54.4,10.5,78.4c11.7,17.8,28.7,30.1,47.5,36.3
		C117.8,207.6,119.5,206.6,120,205 M66,88.8c-2.1,0.1-4.2-0.9-5.5-2.8c0,0,0,0,0,0c-1.9-2.9-1.1-6.8,1.8-8.7c0.9-0.6,1.9-0.9,2.9-1
		l0,0c2.1-0.2,4.3,0.7,5.6,2.5c0.1,0.1,0.1,0.2,0.2,0.3c1.9,2.9,1.1,6.8-1.8,8.7C68.2,88.4,67.1,88.8,66,88.8"/>
	<path class="st11" d="M144.1,152.1L144.1,152.1c0-21.3,17.3-38.6,38.6-38.6C182.7,134.8,165.4,152.1,144.1,152.1z"/>
	<path class="st11" d="M144.1,128.8L144.1,128.8c-14-13.9-14-36.6,0-50.5C158,92.2,158,114.8,144.1,128.8z"/>
	<path class="st11" d="M144.1,152.1L144.1,152.1c-21.3,0-38.6-17.3-38.6-38.6C126.8,113.5,144.1,130.7,144.1,152.1z"/>
	<line class="st11" x1="144.1" y1="128.8" x2="144.1" y2="164.1"/>
</g>
</svg>
